<?xml version="1.0" encoding="UTF-8"?>
<svg
	version="1.1"
	width="380"
	height="380"
	xmlns="http://www.w3.org/2000/svg"
	shape-rendering="crispEdges"
>
	<rect x="80" y="70" width="30" height="10" fill="#1E2545" />
	<rect x="270" y="70" width="30" height="10" fill="#1E2545" />
	<rect x="60" y="80" width="20" height="10" fill="#1E2545" />
	<rect x="80" y="80" width="10" height="10" fill="#5E76AB" />
	<rect x="90" y="80" width="10" height="20" fill="#A0BDFC" />
	<rect x="100" y="80" width="10" height="10" fill="#5E76AB" />
	<rect x="110" y="80" width="20" height="10" fill="#1E2545" />
	<rect x="250" y="80" width="20" height="10" fill="#1E2545" />
	<rect x="270" y="80" width="10" height="10" fill="#5E76AB" />
	<rect x="280" y="80" width="10" height="20" fill="#A0BDFC" />
	<rect x="290" y="80" width="10" height="10" fill="#5E76AB" />
	<rect x="300" y="80" width="20" height="10" fill="#1E2545" />
	<rect x="50" y="90" width="10" height="10" fill="#1E2545" />
	<rect x="60" y="90" width="10" height="10" fill="#5E76AB" />
	<rect x="70" y="90" width="20" height="10" fill="#A0BDFC" />
	<rect x="100" y="90" width="20" height="10" fill="#A0BDFC" />
	<rect x="120" y="90" width="10" height="10" fill="#5E76AB" />
	<rect x="130" y="90" width="10" height="10" fill="#1E2545" />
	<rect x="240" y="90" width="10" height="10" fill="#1E2545" />
	<rect x="250" y="90" width="10" height="10" fill="#5E76AB" />
	<rect x="260" y="90" width="20" height="10" fill="#A0BDFC" />
	<rect x="290" y="90" width="20" height="10" fill="#A0BDFC" />
	<rect x="310" y="90" width="10" height="10" fill="#5E76AB" />
	<rect x="320" y="90" width="10" height="10" fill="#1E2545" />
	<rect x="40" y="100" width="10" height="10" fill="#1E2545" />
	<rect x="50" y="100" width="10" height="10" fill="#5E76AB" />
	<rect x="60" y="100" width="40" height="60" fill="#DFF2FE" />
	<rect x="100" y="100" width="10" height="10" fill="#FAFEFF" />
	<rect x="110" y="100" width="30" height="10" fill="#A0BDFC" />
	<rect x="140" y="100" width="10" height="10" fill="#1E2545" />
	<rect x="230" y="100" width="10" height="10" fill="#1E2545" />
	<rect x="240" y="100" width="30" height="10" fill="#A0BDFC" />
	<rect x="270" y="100" width="10" height="10" fill="#FAFEFF" />
	<rect x="280" y="100" width="40" height="60" fill="#DFF2FE" />
	<rect x="320" y="100" width="10" height="10" fill="#5E76AB" />
	<rect x="330" y="100" width="10" height="10" fill="#1E2545" />
	<rect x="30" y="110" width="10" height="10" fill="#1E2545" />
	<rect x="40" y="110" width="10" height="10" fill="#A0BDFC" />
	<rect x="50" y="110" width="10" height="70" fill="#DFF2FE" />
	<rect x="100" y="110" width="10" height="50" fill="#DFF2FE" />
	<rect x="110" y="110" width="10" height="10" fill="#FAFEFF" />
	<rect x="120" y="110" width="10" height="10" fill="#C0D4FF" />
	<rect x="130" y="110" width="20" height="10" fill="#A0BDFC" />
	<rect x="150" y="110" width="10" height="10" fill="#1E2545" />
	<rect x="220" y="110" width="10" height="10" fill="#1E2545" />
	<rect x="230" y="110" width="20" height="10" fill="#A0BDFC" />
	<rect x="250" y="110" width="10" height="10" fill="#C0D4FF" />
	<rect x="260" y="110" width="10" height="10" fill="#FAFEFF" />
	<rect x="270" y="110" width="10" height="50" fill="#DFF2FE" />
	<rect x="320" y="110" width="10" height="70" fill="#DFF2FE" />
	<rect x="330" y="110" width="10" height="10" fill="#A0BDFC" />
	<rect x="340" y="110" width="10" height="10" fill="#1E2545" />
	<rect x="20" y="120" width="10" height="10" fill="#1E2545" />
	<rect x="30" y="120" width="10" height="10" fill="#A0BDFC" />
	<rect x="40" y="120" width="10" height="60" fill="#DFF2FE" />
	<rect x="110" y="120" width="20" height="50" fill="#DFF2FE" />
	<rect x="130" y="120" width="10" height="10" fill="#FAFEFF" />
	<rect x="140" y="120" width="10" height="10" fill="#A0BDFC" />
	<rect x="150" y="120" width="10" height="10" fill="#5E76AB" />
	<rect x="160" y="120" width="10" height="10" fill="#1E2545" />
	<rect x="210" y="120" width="10" height="10" fill="#1E2545" />
	<rect x="220" y="120" width="10" height="10" fill="#5E76AB" />
	<rect x="230" y="120" width="10" height="10" fill="#A0BDFC" />
	<rect x="240" y="120" width="10" height="10" fill="#FAFEFF" />
	<rect x="250" y="120" width="20" height="50" fill="#DFF2FE" />
	<rect x="330" y="120" width="10" height="60" fill="#DFF2FE" />
	<rect x="340" y="120" width="10" height="10" fill="#A0BDFC" />
	<rect x="350" y="120" width="10" height="10" fill="#1E2545" />
	<rect x="10" y="130" width="10" height="10" fill="#1E2545" />
	<rect x="20" y="130" width="10" height="50" fill="#A0BDFC" />
	<rect x="30" y="130" width="10" height="40" fill="#DFF2FE" />
	<rect x="130" y="130" width="10" height="30" fill="#DFF2FE" />
	<rect x="140" y="130" width="10" height="30" fill="#FAFEFF" />
	<rect x="150" y="130" width="20" height="60" fill="#A0BDFC" />
	<rect x="170" y="130" width="10" height="10" fill="#1E2545" />
	<rect x="200" y="130" width="10" height="10" fill="#1E2545" />
	<rect x="210" y="130" width="20" height="60" fill="#A0BDFC" />
	<rect x="230" y="130" width="10" height="30" fill="#FAFEFF" />
	<rect x="240" y="130" width="10" height="30" fill="#DFF2FE" />
	<rect x="340" y="130" width="10" height="40" fill="#DFF2FE" />
	<rect x="350" y="130" width="10" height="50" fill="#A0BDFC" />
	<rect x="360" y="130" width="10" height="10" fill="#1E2545" />
	<rect x="0" y="140" width="10" height="30" fill="#1E2545" />
	<rect x="10" y="140" width="10" height="10" fill="#5E76AB" />
	<rect x="170" y="140" width="10" height="10" fill="#5E76AB" />
	<rect x="180" y="140" width="20" height="10" fill="#1E2545" />
	<rect x="200" y="140" width="10" height="10" fill="#5E76AB" />
	<rect x="360" y="140" width="10" height="10" fill="#5E76AB" />
	<rect x="370" y="140" width="10" height="30" fill="#1E2545" />
	<rect x="10" y="150" width="10" height="10" fill="#A0BDFC" />
	<rect x="170" y="150" width="10" height="30" fill="#A0BDFC" />
	<rect x="180" y="150" width="20" height="10" fill="#5E76AB" />
	<rect x="200" y="150" width="10" height="30" fill="#A0BDFC" />
	<rect x="360" y="150" width="10" height="10" fill="#A0BDFC" />
	<rect x="10" y="160" width="10" height="10" fill="#5E76AB" />
	<rect x="60" y="160" width="10" height="10" fill="#DFF2FE" />
	<rect x="70" y="160" width="10" height="10" fill="#FAFEFF" />
	<rect x="80" y="160" width="10" height="10" fill="#C0D4FF" />
	<rect x="90" y="160" width="20" height="10" fill="#A0BDFC" />
	<rect x="130" y="160" width="10" height="10" fill="#FAFEFF" />
	<rect x="140" y="160" width="10" height="50" fill="#A0BDFC" />
	<rect x="180" y="160" width="20" height="10" fill="#A0BDFC" />
	<rect x="230" y="160" width="10" height="50" fill="#A0BDFC" />
	<rect x="240" y="160" width="10" height="10" fill="#FAFEFF" />
	<rect x="270" y="160" width="20" height="10" fill="#A0BDFC" />
	<rect x="290" y="160" width="10" height="10" fill="#C0D4FF" />
	<rect x="300" y="160" width="10" height="10" fill="#FAFEFF" />
	<rect x="310" y="160" width="10" height="10" fill="#DFF2FE" />
	<rect x="360" y="160" width="10" height="10" fill="#5E76AB" />
	<rect x="10" y="170" width="10" height="10" fill="#1E2545" />
	<rect x="30" y="170" width="10" height="20" fill="#A0BDFC" />
	<rect x="60" y="170" width="10" height="10" fill="#FAFEFF" />
	<rect x="70" y="170" width="20" height="10" fill="#A0BDFC" />
	<rect x="90" y="170" width="10" height="10" fill="#1E2545" />
	<rect x="100" y="170" width="40" height="10" fill="#A0BDFC" />
	<rect x="180" y="170" width="20" height="70" fill="#DFF2FE" />
	<rect x="240" y="170" width="40" height="10" fill="#A0BDFC" />
	<rect x="280" y="170" width="10" height="10" fill="#1E2545" />
	<rect x="290" y="170" width="20" height="10" fill="#A0BDFC" />
	<rect x="310" y="170" width="10" height="10" fill="#FAFEFF" />
	<rect x="340" y="170" width="10" height="20" fill="#A0BDFC" />
	<rect x="360" y="170" width="10" height="10" fill="#1E2545" />
	<rect x="20" y="180" width="10" height="10" fill="#1E2545" />
	<rect x="40" y="180" width="10" height="10" fill="#A0BDFC" />
	<rect x="50" y="180" width="10" height="10" fill="#FAFEFF" />
	<rect x="60" y="180" width="20" height="10" fill="#A0BDFC" />
	<rect x="80" y="180" width="10" height="10" fill="#1E2545" />
	<rect x="100" y="180" width="10" height="10" fill="#1E2545" />
	<rect x="110" y="180" width="30" height="30" fill="#A0BDFC" />
	<rect x="170" y="180" width="10" height="60" fill="#DFF2FE" />
	<rect x="200" y="180" width="10" height="60" fill="#DFF2FE" />
	<rect x="240" y="180" width="30" height="30" fill="#A0BDFC" />
	<rect x="270" y="180" width="10" height="10" fill="#1E2545" />
	<rect x="290" y="180" width="10" height="10" fill="#1E2545" />
	<rect x="300" y="180" width="20" height="10" fill="#A0BDFC" />
	<rect x="320" y="180" width="10" height="10" fill="#FAFEFF" />
	<rect x="330" y="180" width="10" height="10" fill="#A0BDFC" />
	<rect x="350" y="180" width="10" height="10" fill="#1E2545" />
	<rect x="30" y="190" width="10" height="10" fill="#1E2545" />
	<rect x="40" y="190" width="10" height="10" fill="#5E76AB" />
	<rect x="50" y="190" width="20" height="10" fill="#A0BDFC" />
	<rect x="70" y="190" width="10" height="10" fill="#1E2545" />
	<rect x="90" y="190" width="10" height="20" fill="#1E2545" />
	<rect x="100" y="190" width="10" height="10" fill="#5E76AB" />
	<rect x="150" y="190" width="10" height="10" fill="#A0BDFC" />
	<rect x="160" y="190" width="10" height="10" fill="#C0D4FF" />
	<rect x="210" y="190" width="10" height="10" fill="#C0D4FF" />
	<rect x="220" y="190" width="10" height="10" fill="#A0BDFC" />
	<rect x="270" y="190" width="10" height="10" fill="#5E76AB" />
	<rect x="280" y="190" width="10" height="20" fill="#1E2545" />
	<rect x="300" y="190" width="10" height="10" fill="#1E2545" />
	<rect x="310" y="190" width="20" height="10" fill="#A0BDFC" />
	<rect x="330" y="190" width="10" height="10" fill="#5E76AB" />
	<rect x="340" y="190" width="10" height="10" fill="#1E2545" />
	<rect x="40" y="200" width="30" height="10" fill="#1E2545" />
	<rect x="100" y="200" width="10" height="60" fill="#A0BDFC" />
	<rect x="150" y="200" width="10" height="10" fill="#C0D4FF" />
	<rect x="160" y="200" width="10" height="120" fill="#DFF2FE" />
	<rect x="210" y="200" width="10" height="120" fill="#DFF2FE" />
	<rect x="220" y="200" width="10" height="10" fill="#C0D4FF" />
	<rect x="270" y="200" width="10" height="60" fill="#A0BDFC" />
	<rect x="310" y="200" width="30" height="10" fill="#1E2545" />
	<rect x="80" y="210" width="10" height="20" fill="#1E2545" />
	<rect x="90" y="210" width="10" height="10" fill="#5E76AB" />
	<rect x="110" y="210" width="20" height="30" fill="#A0BDFC" />
	<rect x="130" y="210" width="20" height="10" fill="#333C64" />
	<rect x="150" y="210" width="10" height="110" fill="#DFF2FE" />
	<rect x="220" y="210" width="10" height="110" fill="#DFF2FE" />
	<rect x="230" y="210" width="20" height="10" fill="#333C64" />
	<rect x="250" y="210" width="20" height="30" fill="#A0BDFC" />
	<rect x="280" y="210" width="10" height="10" fill="#5E76AB" />
	<rect x="290" y="210" width="10" height="20" fill="#1E2545" />
	<rect x="90" y="220" width="10" height="50" fill="#A0BDFC" />
	<rect x="130" y="220" width="20" height="30" fill="#1E2545" />
	<rect x="230" y="220" width="20" height="30" fill="#1E2545" />
	<rect x="280" y="220" width="10" height="50" fill="#A0BDFC" />
	<rect x="70" y="230" width="10" height="20" fill="#1E2545" />
	<rect x="80" y="230" width="10" height="10" fill="#5E76AB" />
	<rect x="290" y="230" width="10" height="10" fill="#5E76AB" />
	<rect x="300" y="230" width="10" height="20" fill="#1E2545" />
	<rect x="80" y="240" width="10" height="80" fill="#A0BDFC" />
	<rect x="110" y="240" width="10" height="10" fill="#A0BDFC" />
	<rect x="120" y="240" width="10" height="10" fill="#C0D4FF" />
	<rect x="170" y="240" width="40" height="10" fill="#FC9797" />
	<rect x="250" y="240" width="10" height="10" fill="#C0D4FF" />
	<rect x="260" y="240" width="10" height="10" fill="#A0BDFC" />
	<rect x="290" y="240" width="10" height="80" fill="#A0BDFC" />
	<rect x="60" y="250" width="10" height="20" fill="#1E2545" />
	<rect x="70" y="250" width="10" height="10" fill="#5E76AB" />
	<rect x="110" y="250" width="10" height="10" fill="#C0D4FF" />
	<rect x="120" y="250" width="10" height="70" fill="#DFF2FE" />
	<rect x="130" y="250" width="20" height="10" fill="#EBF5FF" />
	<rect x="170" y="250" width="10" height="30" fill="#DFF2FE" />
	<rect x="180" y="250" width="20" height="10" fill="#FC9797" />
	<rect x="200" y="250" width="10" height="30" fill="#DFF2FE" />
	<rect x="230" y="250" width="20" height="10" fill="#EBF5FF" />
	<rect x="250" y="250" width="10" height="70" fill="#DFF2FE" />
	<rect x="260" y="250" width="10" height="10" fill="#C0D4FF" />
	<rect x="300" y="250" width="10" height="10" fill="#5E76AB" />
	<rect x="310" y="250" width="10" height="20" fill="#1E2545" />
	<rect x="70" y="260" width="10" height="60" fill="#A0BDFC" />
	<rect x="100" y="260" width="10" height="10" fill="#C0D4FF" />
	<rect x="110" y="260" width="10" height="60" fill="#DFF2FE" />
	<rect x="130" y="260" width="20" height="60" fill="#DFF2FE" />
	<rect x="180" y="260" width="20" height="10" fill="#DFF2FE" />
	<rect x="230" y="260" width="20" height="60" fill="#DFF2FE" />
	<rect x="260" y="260" width="10" height="60" fill="#DFF2FE" />
	<rect x="270" y="260" width="10" height="10" fill="#C0D4FF" />
	<rect x="300" y="260" width="10" height="60" fill="#A0BDFC" />
	<rect x="50" y="270" width="10" height="40" fill="#1E2545" />
	<rect x="60" y="270" width="10" height="10" fill="#5E76AB" />
	<rect x="90" y="270" width="10" height="10" fill="#C0D4FF" />
	<rect x="100" y="270" width="10" height="50" fill="#DFF2FE" />
	<rect x="180" y="270" width="20" height="10" fill="#9EAEBA" />
	<rect x="270" y="270" width="10" height="50" fill="#DFF2FE" />
	<rect x="280" y="270" width="10" height="10" fill="#C0D4FF" />
	<rect x="310" y="270" width="10" height="10" fill="#5E76AB" />
	<rect x="320" y="270" width="10" height="40" fill="#1E2545" />
	<rect x="60" y="280" width="10" height="20" fill="#A0BDFC" />
	<rect x="90" y="280" width="10" height="30" fill="#DFF2FE" />
	<rect x="170" y="280" width="10" height="10" fill="#B8CAD9" />
	<rect x="180" y="280" width="20" height="40" fill="#DFF2FE" />
	<rect x="200" y="280" width="10" height="10" fill="#B8CAD9" />
	<rect x="280" y="280" width="10" height="30" fill="#DFF2FE" />
	<rect x="310" y="280" width="10" height="20" fill="#A0BDFC" />
	<rect x="170" y="290" width="10" height="30" fill="#DFF2FE" />
	<rect x="200" y="290" width="10" height="30" fill="#DFF2FE" />
	<rect x="60" y="300" width="10" height="10" fill="#5E76AB" />
	<rect x="310" y="300" width="10" height="10" fill="#5E76AB" />
	<rect x="60" y="310" width="10" height="10" fill="#1E2545" />
	<rect x="90" y="310" width="10" height="10" fill="#C0D4FF" />
	<rect x="280" y="310" width="10" height="10" fill="#C0D4FF" />
	<rect x="310" y="310" width="10" height="10" fill="#1E2545" />
	<rect x="70" y="320" width="240" height="10" fill="#1E2545" />
</svg>
